<svg xmlns="http://www.w3.org/2000/svg" viewBox="0 0 1920 1080.62"><defs><style>.cls-1{isolation:isolate;}.cls-2{fill:#a1d4f1;}.cls-3{fill:#8dc6db;}.cls-4{fill:#4367c7;opacity:0.15;}.cls-28,.cls-42,.cls-5{fill:none;}.cls-6{fill:#070c14;}.cls-7{fill:#0e1827;}.cls-8{fill:#592bc2;}.cls-9{fill:#e4f1f9;}.cls-10{fill:#fff;}.cls-11{fill:#d0d5db;}.cls-12{fill:#cd206b;}.cls-13{fill:#ff65a7;}.cls-14{fill:#45457b;}.cls-15{fill:#ef3da8;}.cls-16{fill:#44447c;}.cls-17,.cls-24{fill:#fad7a4;}.cls-17,.cls-18,.cls-19,.cls-20,.cls-21,.cls-22{fill-rule:evenodd;}.cls-18{fill:#a7a9ac;}.cls-19,.cls-41{fill:#e6e7e8;}.cls-20,.cls-29{fill:#939598;}.cls-21{fill:#632404;}.cls-22{fill:#ffdba7;}.cls-23{fill:#ff9a00;}.cls-25{fill:#f0ce9d;}.cls-26,.cls-27{fill:#0690bd;}.cls-27{opacity:0.4;mix-blend-mode:multiply;}.cls-28,.cls-42{stroke:#cd206b;}.cls-28{stroke-width:4px;}.cls-30{fill:#e5e5e5;}.cls-31{fill:#d1d3d4;}.cls-32{fill:#808285;}.cls-33{fill:#4727aa;}.cls-34{fill:#6944e0;}.cls-35{fill:#414042;}.cls-36{fill:#2c2d2e;}.cls-37{fill:#3a3b3c;}.cls-38{fill:#545557;}.cls-39{fill:#4c4d4e;}.cls-40{fill:#444546;}</style></defs><title>draft2 - fat calculator</title><g class="cls-1"><g id="Layer_1" data-name="Layer 1"><rect class="cls-2" width="1920" height="1079.95"/><path class="cls-3" d="M1918.76,690.48S1333.69,494.56,1025.4,801.25,1.35,1080,1.35,1080l1920,.67Z" transform="translate(-1.35)"/><path class="cls-3" d="M1199.8,0s-7.25,210.23-378.32,212.07S294,396.59,272.63,460.24,199.38,636.09,1.35,663V0Z" transform="translate(-1.35)"/><path class="cls-4" d="M480.71,771.17l.63.39L848.83,983.73c6.49,3.74,17,3.72,23.59-.05l338.24-195.29,7.58-4.37.71-.44c2.89-1.89,4.3-4.27,4.21-6.63s-1.7-4.74-4.84-6.55L850.83,558.23c-6.49-3.75-17.05-3.73-23.58,0L481.42,757.94c-3.55,2-5.18,4.78-4.89,7.46C476.76,767.48,478.15,769.52,480.71,771.17Z" transform="translate(-1.35)"/><polygon class="cls-5" points="1214.65 758.05 1214.65 758.05 876.4 953.34 1214.65 758.05"/><path class="cls-6" d="M1228.5,746.61c.08,2.36-1.32,4.74-4.21,6.63l-.72.44-7.57,4.37h0L877.75,953.34c-6.53,3.77-17.1,3.79-23.58,0L486.68,741.22l-.63-.39c-2.57-1.65-4-3.69-4.18-5.77h0v12.57h0c.16,2.33,1.77,4.61,4.83,6.38L854.17,966.18c6.48,3.75,17.05,3.73,23.58,0l345.82-199.66c3-1.72,4.6-3.91,4.89-6.15h0V746.61Z" transform="translate(-1.35)"/><path class="cls-7" d="M486.05,740.83l.63.39L854.17,953.39c6.48,3.74,17.05,3.72,23.58,0L1216,758.05l7.57-4.37.72-.44c2.89-1.89,4.29-4.27,4.21-6.63s-1.7-4.74-4.84-6.55L856.17,527.89c-6.49-3.75-17-3.73-23.59.05L486.76,727.6c-3.55,2-5.18,4.78-4.89,7.46C482.09,737.14,483.48,739.18,486.05,740.83Z" transform="translate(-1.35)"/><path class="cls-8" d="M1221.81,716.38,854.32,504.21c-6.49-3.75-17.05-3.72-23.58.05l-31.92,18.42L1188.9,749l25.25-14.58,7.58-4.37.71-.44c2.89-1.89,4.3-4.27,4.21-6.63S1225,718.19,1221.81,716.38Z" transform="translate(-1.35)"/><ellipse class="cls-9" cx="842.03" cy="524.12" rx="6.52" ry="3.76" transform="matrix(1, -0.01, 0.01, 1, -4.63, 5.31)"/><ellipse class="cls-9" cx="860.74" cy="535.29" rx="6.52" ry="3.76" transform="translate(-4.7 5.43) rotate(-0.36)"/><ellipse class="cls-9" cx="880.8" cy="546.76" rx="6.52" ry="3.76" transform="translate(-4.77 5.55) rotate(-0.36)"/><path class="cls-10" d="M1155.7,715.83a6.9,6.9,0,0,1,2.52-.35l9.91,0a6.11,6.11,0,0,1,2.15.27c1-2.62,3.49-4.59,7.63-5.8a22,22,0,0,1,8.93-.68c6.81.83,11.4,4.29,11.06,8.26s-5.57,7.11-12.32,7.6a22.92,22.92,0,0,1-6.85-.52,15.71,15.71,0,0,1-5.56-2.37,7.27,7.27,0,0,1-2.89-3.64,9.52,9.52,0,0,1-3.29.28l-8.76,0a7.1,7.1,0,0,1-2.55-.34l-.54-.31a5,5,0,0,1-.54-.81c-.17-.47.12-.89.56-1.29Zm21-2.93c-4.06,2.36-4.08,6.17-.05,8.49a16.27,16.27,0,0,0,14.7,0c4.07-2.35,4.09-6.15,0-8.48A16.27,16.27,0,0,0,1176.66,712.9Z" transform="translate(-1.35)"/><polygon class="cls-11" points="778.7 587.99 823.85 561.79 1159.83 753.52 1114.66 780.54 778.7 587.99"/><polygon class="cls-11" points="719.14 621.69 764.29 595.49 1100.27 787.22 1055.1 814.23 719.14 621.69"/><polygon class="cls-11" points="657.92 657.47 703.07 631.27 1039.05 822.99 993.87 850.01 657.92 657.47"/><polygon class="cls-11" points="595.92 691.6 641.07 665.39 977.05 857.12 931.88 884.14 595.92 691.6"/><polygon class="cls-8" points="580.25 752.18 612.17 734.07 847.11 871.17 815.16 889.86 580.25 752.18"/><path class="cls-10" d="M651.73,781.08a3.35,3.35,0,0,1-.45-2.81,4.47,4.47,0,0,1,2.1-2.44,9.59,9.59,0,0,1,4-1.35,14.28,14.28,0,0,1,4.64.19,14,14,0,0,1,4.4,1.68,8.67,8.67,0,0,1,2.56,2.13,3.63,3.63,0,0,1,.82,2.3l-3.5-.17a3.3,3.3,0,0,0-2-2.78,8.12,8.12,0,0,0-2.63-1,8.4,8.4,0,0,0-2.78-.07,6.36,6.36,0,0,0-2.42.87,3,3,0,0,0-1.35,1.49,2,2,0,0,0,.2,1.68,4.6,4.6,0,0,0,1.72,1.58,8.62,8.62,0,0,0,4.65,1.09l.39,2.13a13.24,13.24,0,0,1-3.84-.42,14.13,14.13,0,0,1-3.62-1.5A8.06,8.06,0,0,1,651.73,781.08Z" transform="translate(-1.35)"/><path class="cls-10" d="M673.1,791.36,667,787.78l-3.6.84-3.12-1.83,17.17-3.69,3,1.76L675,795.44l-3.19-1.87Zm1-1.82,2.24-3.95L670,787.1Z" transform="translate(-1.35)"/><path class="cls-10" d="M687.65,789.1l3,1.78-9.12,5.8,6.56,3.85L686,801.89l-9.6-5.64Z" transform="translate(-1.35)"/><path class="cls-10" d="M690.66,804a3.43,3.43,0,0,1-.47-2.81,4.49,4.49,0,0,1,2.07-2.45,9.53,9.53,0,0,1,3.91-1.37,13.77,13.77,0,0,1,4.6.18,14.1,14.1,0,0,1,4.36,1.65,8.85,8.85,0,0,1,2.54,2.13,3.65,3.65,0,0,1,.84,2.29l-3.47-.15a3.31,3.31,0,0,0-2-2.77,8.25,8.25,0,0,0-5.36-1,6,6,0,0,0-2.39.88A3,3,0,0,0,694,802a2,2,0,0,0,.21,1.69,4.63,4.63,0,0,0,1.71,1.57,8.54,8.54,0,0,0,4.61,1.07l.41,2.13a13.33,13.33,0,0,1-3.81-.4,13.91,13.91,0,0,1-3.59-1.49A8,8,0,0,1,690.66,804Z" transform="translate(-1.35)"/><path class="cls-10" d="M703.62,810.85q-.23-1.77,2.23-3.35l6.24-4,3,1.77-6.14,4q-3,1.93-.09,3.64a5.42,5.42,0,0,0,2.88.8,5.73,5.73,0,0,0,3-1l6.13-4,3,1.74-6.22,4a9.19,9.19,0,0,1-5.32,1.53,11.6,11.6,0,0,1-5.67-1.7C704.78,813.16,703.77,812,703.62,810.85Z" transform="translate(-1.35)"/><path class="cls-10" d="M726.82,812.16l3,1.77-9,5.83,6.52,3.84L725.26,825l-9.54-5.61Z" transform="translate(-1.35)"/><path class="cls-10" d="M738,829.49,732,826l-3.52.87L725.35,825l16.83-3.81,3,1.74-5.22,10.63-3.15-1.85Zm1-1.82,2.16-4-6.27,1.56Z" transform="translate(-1.35)"/><path class="cls-10" d="M752.23,829.69l-4.14-2.43,2.07-1.36,11.25,6.62-2.06,1.36-4.13-2.43-8.91,5.87-3-1.76Z" transform="translate(-1.35)"/><path class="cls-10" d="M764.11,845.24l-2,1.35-10-5.89L763,833.46l9.73,5.73-2,1.35-6.77-4-2.38,1.57,6,3.52-2,1.31-6-3.52-2.53,1.67Z" transform="translate(-1.35)"/><path class="cls-12" d="M1376,617.34V581l-281.32,0v36.32c0,5.63,3.76,11.26,11.18,15.55L1209,692.39c14.85,8.57,38.93,8.57,53.68,0L1365,632.89C1372.4,628.6,1376.07,623,1376,617.34Z" transform="translate(-1.35)"/><path class="cls-13" d="M1364.85,565.47c14.85,8.57,14.92,22.52.18,31.09l-102.39,59.51c-14.75,8.57-38.83,8.57-53.68,0l-103.06-59.5c-14.84-8.57-14.92-22.53-.17-31.1L1208.12,506c14.74-8.57,38.83-8.57,53.67,0Z" transform="translate(-1.35)"/><path class="cls-10" d="M1285.9,531.92c-2.29-.78-4.61-1.54-7-2.21Zm37.76,23.54a48.68,48.68,0,0,1,3.11,4l-28.08,34.83-85.87,2.6L1201,536.73l71.35-8.73a121.39,121.39,0,0,1,31.83,12.08c-.68-.39-1.39-.77-2.06-1.13l5.65,3.26-2-1.2a72.68,72.68,0,0,1,16.63,13.11c-.84-.91-1.74-1.81-2.67-2.71Z" transform="translate(-1.35)"/><path class="cls-14" d="M1285.9,531.92l-8.93,8.89c-2.25-.79-4.63-1.52-7-2.17l8.93-8.93C1281.29,530.38,1283.61,531.14,1285.9,531.92Z" transform="translate(-1.35)"/><path class="cls-14" d="M1305,540.54l.8.47,2,1.2-12.56,7.3c-.88-.58-1.73-1.18-2.67-1.72s-2-1-3-1.54l12.56-7.3c.67.36,1.38.74,2.06,1.13Z" transform="translate(-1.35)"/><path class="cls-14" d="M1319.79,551.41c.93.9,1.83,1.8,2.67,2.71.42.44.82.89,1.2,1.33l-15.36,5.22a45.26,45.26,0,0,0-3.84-4.06Z" transform="translate(-1.35)"/><path class="cls-15" d="M1271.83,559.84c2.54,1.47,2.83,3.73.56,5L1249.83,578a42.73,42.73,0,0,1-5-2.45,32.9,32.9,0,0,1-4.25-2.91l22.56-13.11C1265.37,558.21,1269.25,558.35,1271.83,559.84Z" transform="translate(-1.35)"/><path class="cls-16" d="M1356.56,570.29c10.23,5.91,10.28,15.51.09,21.44l-102.39,59.5c-10.16,5.91-26.74,5.91-37,0l-103.06-59.5c-10.26-5.93-10.32-15.53-.15-21.44l102.39-59.5c10.19-5.92,26.77-5.92,37,0l24.32,14-5.45,3.17-27.75,16.13c-13.36,7.77-14.71,19.84-4.08,28.51a32.9,32.9,0,0,0,4.25,2.91,42.73,42.73,0,0,0,5,2.45c15,6.13,35.84,5.31,49.2-2.45l27.74-16.12,5.47-3.18Z" transform="translate(-1.35)"/><path class="cls-17" d="M1260.89,205.64c-8.92-.53-28.91-6.2-44.67-12.65-.82-.33-1.61-.66-2.36-1-10.94-4.65-16-7.33-13.61-8.37a3.39,3.39,0,0,1,.83-.22,14,14,0,0,1,2.85-.06c1.1.07,2.37.21,3.77.42A196.21,196.21,0,0,1,1248.51,195C1264.28,201.4,1269.81,206.18,1260.89,205.64Z" transform="translate(-1.35)"/><path class="cls-17" d="M1318.61,564.24c4-4.25,3.18-7.58,3.14-8.81-.49-14,10.86-15,2.49-25.33-3.72-4.59-7.67-7.94-9.06-12.38l-10,11.72c2.4,8,2.37,20.34,0,27.26-1,3.17-10.14,9.35-6.62,14.08S1316.15,566.87,1318.61,564.24Z" transform="translate(-1.35)"/><path class="cls-18" d="M1322.19,568.29c4.28-4.38,3.44-7.77,3.4-9-.44-14.33,11.64-15.43,2.8-25.94-3.93-4.67-11.28-9.7-12.74-14.25l3.84,9.67-4.43,8.87c2.51,8.22-4.52,15.94-7,23-1.14,3.26-16.51,2.52-7.12,14.45C1304.55,579.74,1319.55,571,1322.19,568.29Z" transform="translate(-1.35)"/><path class="cls-19" d="M1318.61,564.24c4-4.25,3.18-7.58,3.14-8.81-.49-14,11.68-15.22,3.31-25.54-4-4.34-8.49-7.73-9.88-12.17,0,0,5.85,17.54-3.76,19.72-3.82.87-6.21-8-6.21-8,2.4,8,2.37,20.34,0,27.26-1,3.17-10.14,9.35-6.62,14.08S1316.15,566.87,1318.61,564.24Z" transform="translate(-1.35)"/><path class="cls-20" d="M1311.58,538s2.7,5-.27,13.45C1311.31,551.44,1313.27,543.26,1311.58,538Z" transform="translate(-1.35)"/><path class="cls-17" d="M1185.39,595.61c5.57-1.75,6.49-5.05,7.06-6.14,6.45-12.43,16.83-7.75,14.61-20.85-1-5.82-2.77-10.68-1.81-15.23l-14.44,5.32c-1.87,8.18-7.94,18.88-13.35,23.77-2.47,2.23-13.43,3.16-12.68,9C1165.51,597.16,1182,596.68,1185.39,595.61Z" transform="translate(-1.35)"/><path class="cls-18" d="M1186.51,600.89c5.89-1.71,6.81-5.09,7.4-6.2,6.65-12.69,17.71-7.72,15.17-21.21-1.13-6-5.06-14-4.09-18.67l-1.41,10.3-8.21,5.57c-1.85,8.37-11.78,11.66-17.43,16.61-2.6,2.26-15.62-5.93-13.31,9.07C1165.53,602.19,1182.9,602,1186.51,600.89Z" transform="translate(-1.35)"/><path class="cls-19" d="M1185.39,595.61c5.57-1.75,6.49-5.05,7.06-6.14,6.45-12.43,17.65-7.53,15.43-20.63-1.39-5.76-3.59-10.9-2.63-15.45,0,0-3.52,18.16-13,15.34-3.76-1.13-1.48-10-1.48-10-1.87,8.18-7.94,18.88-13.35,23.77-2.47,2.23-13.43,3.16-12.68,9C1165.51,597.16,1182,596.68,1185.39,595.61Z" transform="translate(-1.35)"/><path class="cls-20" d="M1192.16,569.28s-.1,5.65-6.85,11.58C1185.31,580.86,1191,574.69,1192.16,569.28Z" transform="translate(-1.35)"/><path class="cls-21" d="M1228.1,188.86a14.72,14.72,0,1,0,8.27-19.09A14.71,14.71,0,0,0,1228.1,188.86Z" transform="translate(-1.35)"/><path class="cls-21" d="M1236.32,206.53a14.72,14.72,0,1,0,8.27-19.09A14.71,14.71,0,0,0,1236.32,206.53Z" transform="translate(-1.35)"/><path class="cls-21" d="M1210.44,139a23.46,23.46,0,1,0,13.19-30.45A23.46,23.46,0,0,0,1210.44,139Z" transform="translate(-1.35)"/><path class="cls-21" d="M1214.89,155.06a23.46,23.46,0,1,0,13.19-30.45A23.45,23.45,0,0,0,1214.89,155.06Z" transform="translate(-1.35)"/><path class="cls-21" d="M1218.21,163.47a19.25,19.25,0,1,0,10.83-25A19.25,19.25,0,0,0,1218.21,163.47Z" transform="translate(-1.35)"/><path class="cls-22" d="M1207.18,168c5.4,13.65,17.91,17,24,9.33,3-3.8,9.42-10.26,9.63-17.23s1.56-19.34-1.13-26.16c-5.41-13.65-28-11.7-34-4.09-3.36,4.23-3.8,11.91-3.67,19.8C1202.07,155.93,1204.77,161.89,1207.18,168Z" transform="translate(-1.35)"/><path class="cls-22" d="M1239,158.68c1.28,3.24,3.77,5.49,6,2.74.47-.59.83-4,1.16-4.78,1.2-2.73,1.79-5.35.78-7.9a4,4,0,0,0-5.5-2.06c-.59.3-.22.47-.77,1.16A12.11,12.11,0,0,0,1239,158.68Z" transform="translate(-1.35)"/><path class="cls-23" d="M1220.4,369.89c-2,16.64-3.33,33.38-6.44,47-1.92,8.39-.68,22.29-4.77,27.12-4,4.68-13.42,4.4-15.39,3.53-9-4-13.65-22.31-16.09-59.8-.87-13.34-1.9-26.46-1.13-37.92,1.39-20.76,6.26-36.35,11.54-39.87,4.68-3.12,25.84-6.7,31.47,8.8,1,2.79,3.24,5.78,3.73,9.21C1224.72,337.35,1222.75,350,1220.4,369.89Z" transform="translate(-1.35)"/><path class="cls-23" d="M1266.91,360.13c-2,16.65-3.32,33.38-6.43,47-1.92,8.4-4,22.5-8,27.34-4,4.69-13.42,4.4-15.41,3.53-9-4-11.87-22.43-14.31-59.92-.87-13.34-.66-26.44-1.13-37.92-.28-6.84-2-14.11-1.15-19.56,1.72-11.11,7.38-17.83,10.92-20.19,4.68-3.13,25.84-6.7,31.47,8.8C1266.61,319.6,1270.13,333,1266.91,360.13Z" transform="translate(-1.35)"/><path class="cls-23" d="M1212.48,473.85c-1.3,11-7.23,79.54-7.23,79.54l-14.44,5.32-5.08-73.18s-3.38-22.11-3.41-27c0-2.26-.23-4.35-.28-6.29a94.3,94.3,0,0,1,1.91-19.66s24-5.2,27.71,5C1214.16,444.48,1214.61,455.92,1212.48,473.85Z" transform="translate(-1.35)"/><path class="cls-23" d="M1276.44,446.77c5,9.88,38.74,71,38.74,71l-10,11.72-44.6-58.15s-14.17-16.56-16.93-20.65c-7.69-11.4-11.65-16.82-8.69-23.8,1.45-3.42,11.78-13.13,20.56-6.65C1261.44,424.55,1268.29,430.65,1276.44,446.77Z" transform="translate(-1.35)"/><path class="cls-24" d="M1210.19,184.58s25.58,9.61,28.27,6.54l21.13,8.42s-13,3.36-11.33,21.88l5.17,25.29s-14.07,22.92-12.8,32.26c1,7.55,18.64,24.1,18.64,24.1s-4,40.86-75.59,12.57c0,0,13.49-23.87,14.08-32.92.44-6.73-6.93-35-6.93-35s-9.92-9.5-3.84-25c1.86-4.71,7.65-9.7,8.56-11.9,1.12-2.78,7-27.5,7-27.5a18,18,0,0,1,3.69.37c.5.08,1.37.24,2.17.42S1210.19,184.58,1210.19,184.58Z" transform="translate(-1.35)"/><path class="cls-24" d="M1214.09,193.64c.68,18-11.45,60-14.92,75.37-1.17,5.2-13.89.45-13.89.45,0-1.72,1-13.47,1-15.63-.26-19.11.21-53.21,9-66.58a9,9,0,0,1,5.56-3.79c.28-.07.8-.07,1.09-.12a14.57,14.57,0,0,1,2.85.15c1.09.14,2.35.37,3.73.68a15.55,15.55,0,0,1,3,1.63C1213.17,186.9,1213.94,189.69,1214.09,193.64Z" transform="translate(-1.35)"/><path class="cls-24" d="M1165.48,300.68l3.54,7.25s37.47-26.39,41.51-48.72c1-5.48-4.13-7.4-7.47-6.72C1189.48,255.21,1165.48,300.68,1165.48,300.68Z" transform="translate(-1.35)"/><path class="cls-24" d="M1165.82,300.65s-9.39,1.63-12.3,2.44-7.9.14-7.49,2.25,7.45,1.44,7.45,1.44l-6.35,6.64s-1.26,2.39-.5,3.6-1.33,2.6,1.95,4.06c2.8,1.24,4.3-.3,6.79-1.67a49.54,49.54,0,0,0,9.52-6.55c5-4.16,4.53-5.42,4.53-5.42Z" transform="translate(-1.35)"/><path class="cls-25" d="M1146.67,317c-.77-1.21.5-3.59.5-3.59l2.22-2.32a15.47,15.47,0,0,1,.59,10.37c-.67.05-.51,0-1.37-.4C1145.33,319.64,1147.37,318.17,1146.67,317Z" transform="translate(-1.35)"/><path class="cls-24" d="M1232.65,175.34s.17,13.8,5.81,15.78c1.76.62-4.25,1.91-7.67,1.61-7.57-.67-18.14-4.42-15-7.27,1.1-1,0-6.38,0-6.38C1218.19,180.35,1225.15,184.74,1232.65,175.34Z" transform="translate(-1.35)"/><path class="cls-26" d="M1210.25,184.17s-6.27,18.42-4.2,24.71c1.86,5.7,12.33,10.76,22.41,7,3.44-1.3,7.12-5.07,9.42-9.35,1.42-2.63,5-9.33,6.43-13.16,0,0,4.46,1.68,6,2.33.55.23,1.51.63,2.44,1,1.44.64,1.74.79,1.74.79s-10,5.59-5.9,25.44l4.88,23.78s-11.68,22.21-10.39,31.94c1,7.31,16.25,24.71,16.25,24.71s-4,40.57-75.61,12.28c0,0,11-24.1,11.71-32.77.56-6.56-4.56-35.12-4.56-35.12s-11.62-11.93-3.62-27.67c1.87-3.68,7.35-8.43,8.24-10.63,1.12-2.77,7.06-26.13,7.06-26.13a25.5,25.5,0,0,1,3.73.23c.49.06,1.36.14,2.16.3S1210.25,184.17,1210.25,184.17Z" transform="translate(-1.35)"/><path class="cls-21" d="M1193.36,134.57a10.58,10.58,0,1,0,6-13.73A10.58,10.58,0,0,0,1193.36,134.57Z" transform="translate(-1.35)"/><path class="cls-21" d="M1197.84,128.49a14.44,14.44,0,1,0,8.12-18.74A14.45,14.45,0,0,0,1197.84,128.49Z" transform="translate(-1.35)"/><path class="cls-21" d="M1209.66,124.07a14.2,14.2,0,1,0,8-18.43A14.2,14.2,0,0,0,1209.66,124.07Z" transform="translate(-1.35)"/><path class="cls-21" d="M1228.38,127.48a12.57,12.57,0,1,0,7.06-16.31A12.55,12.55,0,0,0,1228.38,127.48Z" transform="translate(-1.35)"/><path class="cls-27" d="M1253.43,246.71,1251.09,235s-3.78,11.51-11.19,16.93c0,0-4.43,17.51-2.82,26.41a48,48,0,0,0,3.87,10.29c2.9,5.93,16.57,20.37,16.57,20.37l1.77-5.64s-11.13-14.25-12.18-15.94-3.57-6.81-3.57-6.81S1239.8,273.67,1253.43,246.71Z" transform="translate(-1.35)"/><path class="cls-24" d="M1233.79,322.36l3.22,7.4s38.62-24.65,43.68-46.77c1.24-5.43-3.8-7.58-7.14-7.07C1259.83,278,1233.79,322.36,1233.79,322.36Z" transform="translate(-1.35)"/><path class="cls-24" d="M1234.13,322.35s-9.45,1.19-12.38,1.87-7.9-.22-7.59,1.9,7.37,1.78,7.37,1.78l-6.65,6.36s-1.37,2.32-.66,3.56-1.45,2.54,1.76,4.15c2.75,1.37,4.31-.1,6.86-1.36a49,49,0,0,0,9.82-6.11c5.2-3.93,4.76-5.21,4.76-5.21Z" transform="translate(-1.35)"/><path class="cls-25" d="M1214.26,337.84c-.71-1.24.66-3.57.66-3.57l2.32-2.21a15.52,15.52,0,0,1,.13,10.39c-.69,0-.51,0-1.35-.46C1212.8,340.38,1214.91,339,1214.26,337.84Z" transform="translate(-1.35)"/><path class="cls-24" d="M1280.74,282.74c.42-2.27-.53-13.56-.69-15.72-1.34-19.06-6.11-53.17-16-65.74-3.45-4.37-12.78-6-16.34-.08-8.68,14.42,13.58,63.55,19.36,81.87C1268.65,288.14,1280.74,282.74,1280.74,282.74Z" transform="translate(-1.35)"/><path class="cls-27" d="M1186.25,240.38s5.68,19,24,5.66C1210.24,246,1194.14,257.74,1186.25,240.38Z" transform="translate(-1.35)"/><path class="cls-27" d="M1212.74,246.27s6.44,19,27.16,5.66C1239.9,251.93,1221.67,263.62,1212.74,246.27Z" transform="translate(-1.35)"/><path class="cls-28" d="M600,483.21c17.49,8.77,41.36,32.71,74.55,13.54,67.44-38.93,87.3-257.12,158.1-298,59.92-34.6,80,51.36,113.67,32.84,16.36-9,28.38-28.68,34.64-57.42" transform="translate(-1.35)"/><path class="cls-12" d="M591.44,488.12c0-5.43,3.81-12,8.51-14.74s8.51-.52,8.51,4.91-3.81,12-8.51,14.74S591.44,493.55,591.44,488.12Z" transform="translate(-1.35)"/><path class="cls-12" d="M972.4,179.09c0-5.42,3.81-12,8.51-14.74s8.51-.51,8.51,4.92-3.81,12-8.51,14.74S972.4,184.52,972.4,179.09Z" transform="translate(-1.35)"/><path class="cls-12" d="M900.81,222c0-5.42,3.81-12,8.51-14.74s8.52-.51,8.52,4.92-3.82,12-8.52,14.74S900.81,227.41,900.81,222Z" transform="translate(-1.35)"/><path class="cls-12" d="M761.13,304.61c0-5.42,3.81-12,8.51-14.74s8.51-.51,8.51,4.92-3.81,12-8.51,14.74S761.13,310,761.13,304.61Z" transform="translate(-1.35)"/><g class="cls-1"><polygon class="cls-29" points="711.21 384.48 708.57 382.94 709.03 546.12 711.67 547.66 711.21 384.48"/><polygon class="cls-29" points="963.5 238.82 960.85 237.28 708.57 382.94 711.21 384.48 963.5 238.82"/><polygon class="cls-30" points="711.21 384.48 711.67 547.66 963.96 402 963.5 238.82 711.21 384.48"/></g><polygon class="cls-31" points="772.47 399.75 805.22 380.85 805.22 343.26 772.47 362.17 772.47 399.75"/><polygon class="cls-32" points="737.53 411.05 768.03 393.44 768.03 389.43 737.53 407.04 737.53 411.05"/><polygon class="cls-32" points="737.53 402.02 768.03 384.42 768.03 380.41 737.53 398.01 737.53 402.02"/><polygon class="cls-32" points="737.53 393 768.03 375.39 768.03 371.38 737.53 388.99 737.53 393"/><polygon class="cls-32" points="791.63 376.72 784.25 364.86 780.66 366.93 791.63 384.56 801.54 354.88 798.3 356.75 791.63 376.72"/><polygon class="cls-31" points="772.47 449.5 805.22 430.58 805.22 393 772.47 411.91 772.47 449.5"/><polygon class="cls-32" points="737.53 460.79 768.03 443.19 768.03 439.17 737.53 456.78 737.53 460.79"/><polygon class="cls-32" points="737.53 451.76 768.03 434.16 768.03 430.15 737.53 447.75 737.53 451.76"/><polygon class="cls-32" points="737.53 442.74 768.03 425.13 768.03 421.12 737.53 438.73 737.53 442.74"/><polygon class="cls-32" points="791.63 426.46 784.25 414.6 780.66 416.68 791.63 434.3 801.54 404.62 798.3 406.49 791.63 426.46"/><polygon class="cls-31" points="772.71 500.15 805.46 481.24 805.46 443.66 772.71 462.57 772.71 500.15"/><polygon class="cls-32" points="737.77 511.44 768.27 493.84 768.27 489.83 737.77 507.44 737.77 511.44"/><polygon class="cls-32" points="737.77 502.42 768.27 484.81 768.27 480.81 737.77 498.41 737.77 502.42"/><polygon class="cls-32" points="737.77 493.39 768.27 475.79 768.27 471.78 737.77 489.38 737.77 493.39"/><polygon class="cls-32" points="791.87 477.11 784.49 465.26 780.89 467.33 791.87 484.96 801.78 455.27 798.53 457.14 791.87 477.11"/><polygon class="cls-33" points="1087.82 560.59 1091.55 558.73 1092.1 370.72 1088.35 372.58 1087.82 560.59"/><polygon class="cls-34" points="1088.35 372.58 1092.1 370.72 1003.55 319.33 999.34 321.19 1088.35 372.58"/><polygon class="cls-8" points="999.34 321.19 998.8 509.21 1087.82 560.59 1088.35 372.58 999.34 321.19"/><polygon class="cls-31" points="1006.14 325.66 1005.68 497.38 1081.01 540.86 1081.46 369.15 1006.14 325.66"/><polygon class="cls-35" points="1065.47 350.92 1068.88 357.25 1063.58 354.23 1065.47 350.92"/><polygon class="cls-35" points="1064.77 351.32 1067.74 356.64 1063.22 354.01 1064.77 351.32"/><polygon class="cls-36" points="1065.47 350.92 1064.77 351.32 1067.74 356.64 1068.88 357.25 1065.47 350.92"/><polygon class="cls-37" points="1057.84 370.18 1058.52 369.79 1058.55 362.89 1057.86 363.27 1057.84 370.18"/><polygon class="cls-38" points="1030.32 346.32 1030.32 347.38 1030.3 354.28 1057.84 370.18 1057.86 363.27 1057.87 362.21 1030.32 346.32"/><polygon class="cls-39" points="1064.77 351.32 1065.47 350.92 1024.17 327.09 1023.48 327.48 1064.77 351.32"/><polygon class="cls-40" points="1023.48 327.48 1030.32 347.38 1030.32 347.38 1057.86 363.27 1057.86 363.27 1064.77 351.32 1023.48 327.48"/><polygon class="cls-36" points="1057.86 363.27 1058.55 362.89 1065.47 350.92 1064.77 351.32 1057.86 363.27"/><polygon class="cls-41" points="1039.85 412.83 1014.06 397.94 1014.06 368.35 1039.85 383.24 1039.85 412.83"/><polygon class="cls-32" points="1070.31 424.68 1046.3 410.81 1046.3 407.66 1070.31 421.52 1070.31 424.68"/><polygon class="cls-32" points="1070.31 417.57 1046.3 403.71 1046.3 400.55 1070.31 414.42 1070.31 417.57"/><polygon class="cls-32" points="1070.31 410.47 1046.3 396.6 1046.3 393.45 1070.31 407.31 1070.31 410.47"/><polygon class="cls-23" points="1027.71 397.65 1033.53 388.31 1036.36 389.94 1027.72 403.82 1019.91 380.45 1022.47 381.93 1027.71 397.65"/><polygon class="cls-41" points="1039.85 451.99 1014.06 437.11 1014.06 407.51 1039.85 422.4 1039.85 451.99"/><polygon class="cls-32" points="1070.31 463.84 1046.3 449.98 1046.3 446.82 1070.31 460.68 1070.31 463.84"/><polygon class="cls-32" points="1070.31 456.74 1046.3 442.87 1046.3 439.71 1070.31 453.58 1070.31 456.74"/><polygon class="cls-32" points="1070.31 449.63 1046.3 435.77 1046.3 432.61 1070.31 446.47 1070.31 449.63"/><polygon class="cls-23" points="1027.71 436.81 1033.53 427.48 1036.36 429.11 1027.72 442.99 1019.91 419.61 1022.47 421.09 1027.71 436.81"/><polygon class="cls-41" points="1039.66 491.88 1013.87 476.99 1013.87 447.4 1039.66 462.29 1039.66 491.88"/><polygon class="cls-32" points="1070.13 503.73 1046.11 489.86 1046.11 486.7 1070.12 500.57 1070.13 503.73"/><polygon class="cls-32" points="1070.12 496.62 1046.11 482.76 1046.11 479.6 1070.13 493.46 1070.12 496.62"/><polygon class="cls-32" points="1070.13 489.51 1046.11 475.65 1046.11 472.49 1070.12 486.36 1070.13 489.51"/><polygon class="cls-23" points="1027.53 476.69 1033.34 467.36 1036.17 468.99 1027.53 482.87 1019.72 459.5 1022.28 460.97 1027.53 476.69"/><path class="cls-42" d="M830.91,378.21c4.56,2.29,10.79,8.53,19.44,3.53,17.58-10.15,22.76-67,41.22-77.7,15.63-9,20.87,13.4,29.64,8.57,4.27-2.35,7.4-7.48,9-15" transform="translate(-1.35)"/><path class="cls-12" d="M828.69,379.49a4.93,4.93,0,0,1,2.22-3.84c1.23-.71,2.22-.14,2.22,1.28a4.87,4.87,0,0,1-2.22,3.84C829.69,381.48,828.69,380.91,828.69,379.49Z" transform="translate(-1.35)"/><path class="cls-12" d="M928,298.92a4.93,4.93,0,0,1,2.22-3.85c1.23-.7,2.22-.13,2.22,1.29a4.9,4.9,0,0,1-2.22,3.84C929,300.91,928,300.33,928,298.92Z" transform="translate(-1.35)"/><path class="cls-12" d="M909.36,310.1a4.88,4.88,0,0,1,2.22-3.84c1.22-.71,2.22-.14,2.22,1.28a4.93,4.93,0,0,1-2.22,3.84C910.35,312.09,909.36,311.52,909.36,310.1Z" transform="translate(-1.35)"/><path class="cls-12" d="M872.94,331.65a4.9,4.9,0,0,1,2.22-3.85c1.22-.71,2.22-.13,2.22,1.28a4.93,4.93,0,0,1-2.22,3.85C873.93,333.63,872.94,333.06,872.94,331.65Z" transform="translate(-1.35)"/><path class="cls-42" d="M839.6,439.25c4.56,2.29,10.78,8.53,19.44,3.53,17.58-10.15,22.76-67,41.22-77.7,15.63-9,20.86,13.4,29.64,8.57,4.27-2.35,7.4-7.48,9-15" transform="translate(-1.35)"/><path class="cls-12" d="M837.38,440.53a4.91,4.91,0,0,1,2.22-3.84c1.23-.71,2.22-.14,2.22,1.28a4.9,4.9,0,0,1-2.22,3.84C838.38,442.52,837.38,442,837.38,440.53Z" transform="translate(-1.35)"/><path class="cls-12" d="M936.71,360a4.93,4.93,0,0,1,2.22-3.85c1.23-.71,2.22-.13,2.22,1.28a4.9,4.9,0,0,1-2.22,3.85C937.71,361.94,936.71,361.37,936.71,360Z" transform="translate(-1.35)"/><path class="cls-12" d="M918.05,371.14a4.87,4.87,0,0,1,2.22-3.84c1.22-.71,2.22-.14,2.22,1.28a4.93,4.93,0,0,1-2.22,3.84C919,373.13,918.05,372.55,918.05,371.14Z" transform="translate(-1.35)"/><path class="cls-12" d="M881.63,392.68a4.9,4.9,0,0,1,2.22-3.84c1.22-.71,2.21-.13,2.21,1.28a4.88,4.88,0,0,1-2.21,3.84C882.62,394.67,881.63,394.1,881.63,392.68Z" transform="translate(-1.35)"/><path class="cls-10" d="M1248.83,281.7c1.59,4.52.06,15.85-25.37,42.25a10.16,10.16,0,0,1,1.07-.22c1.07-.15,2.12-.39,3.19-.49,18.57-19.73,26.51-34,23.56-42.4-2-5.6-7.92-6.25-8.17-6.28l-.26,2.58C1242.9,277.14,1247.41,277.64,1248.83,281.7Z" transform="translate(-1.35)"/><path class="cls-10" d="M1221,324.61a24.24,24.24,0,0,1,3.54-.79c1.73-.21,3.45-.72,5.17-.88,18.39-19.76,25.85-33.69,22.75-42.53-2.12-6-8.26-7-9.15-7.13h0a11.72,11.72,0,0,0-.41,5.17,6,6,0,0,1,4.67,3.67c1.15,3.28,1,13.83-25.08,40.92Zm23.22-48.49h0a8.35,8.35,0,0,1,5.61,4.68A8.47,8.47,0,0,0,1244.26,276.12Zm6.31,8.42c0,6-4.37,16.48-20.77,34.54C1246.16,301.05,1250.56,290.58,1250.57,284.54Z" transform="translate(-1.35)"/><path class="cls-10" d="M1216.11,342.08a2.48,2.48,0,0,1-.26-.19,1.26,1.26,0,0,1-.34-.12,2.24,2.24,0,0,1-1.18-2.25c0-.46.13-.71.12-1a4,4,0,0,0-.16-.91l-.06-.15c-1.38,6.3-2.41,17.36,1.74,32.18,0,.12,2.27,11.87-3,16.93l1.78,1.87c6.33-6,3.89-18.76,3.76-19.4A67.65,67.65,0,0,1,1216.11,342.08Z" transform="translate(-1.35)"/><path class="cls-10" d="M1219.76,368.76l0-.09a66.87,66.87,0,0,1-2.38-26.14,3.39,3.39,0,0,1-2.84-2.79,9.63,9.63,0,0,1,0-1.42,2.91,2.91,0,0,0-.36-1.16,2.82,2.82,0,0,1,.5-2.46.9.9,0,0,1,.22-.25l-.67-2.65-1.18,5.3c-1.51,6.79-2.42,18,1.72,32.77,0,.11,2.09,11.21-2.65,15.74l-.93.9,3.57,3.74.94-.89C1222.53,382.76,1219.87,369.33,1219.76,368.76Zm-5.1-26,.06,0a69,69,0,0,0,1.92,24.28A67.69,67.69,0,0,1,1214.66,342.78Zm.24,43.51c3.86-5.16,2.82-13.91,2.43-16.38C1217.71,372.33,1218.78,381.11,1214.9,386.29Z" transform="translate(-1.35)"/><path class="cls-10" d="M1172.16,332.74c1.83-7.51,1.09-13.07-2.19-16.54-4.39-4.61-11.69-3.76-13.2-3.53-2-.42-4.32-1.25-4.72-2.79a4.35,4.35,0,0,1,.94-3.19l-1.23.05a15.5,15.5,0,0,1-1.66.08H1150a5.7,5.7,0,0,0-.43,3.7c.6,2.32,2.94,3.92,6.94,4.73l.25.05.25-.05c.08,0,7.27-1.32,11.11,2.73,2.64,2.78,3.16,7.54,1.56,14.1-.18.66-4.45,16.29.72,26.42l2.31-1.18C1168,348.11,1172.1,332.93,1172.16,332.74Z" transform="translate(-1.35)"/><path class="cls-10" d="M1173.41,333.09v0c1.94-8,1.1-13.94-2.51-17.74-4.62-4.87-12.08-4.23-14.09-3.95-2.39-.55-3.39-1.31-3.52-1.8a3.43,3.43,0,0,1,.77-2.16l.64-1c-2,.12-4.06.62-6.07.25a6.81,6.81,0,0,0-.35,4.16c.73,2.85,3.4,4.76,7.94,5.68l.49.1.5-.09c.07,0,6.6-1.17,9.93,2.34,2.32,2.44,2.74,6.78,1.25,12.86-.19.68-4.59,16.76.82,27.36l.58,1.15,4.62-2.35-.59-1.16C1169.37,348,1173.37,333.23,1173.41,333.09Zm-18.3-19.51.53.14Zm15.75,19c-.45,1.71-3.74,14.87.08,24.1C1167.1,347.4,1170.4,334.29,1170.86,332.56Z" transform="translate(-1.35)"/><path class="cls-10" d="M1156.73,314h0l.13,0Z" transform="translate(-1.35)"/><path class="cls-10" d="M1150.89,308.07l0,.07,0-.07Z" transform="translate(-1.35)"/><path class="cls-10" d="M1153.84,301.82a15.08,15.08,0,0,0-1.62,1.6c.7-.17,1.38-.46,2.08-.61.86-.18,1.74-.31,2.61-.42,25.74-26,37.88-24.68,38-24.67l.19-1.28.21-1.27C1194.77,275.07,1181.61,273.27,1153.84,301.82Z" transform="translate(-1.35)"/><path class="cls-10" d="M1194.88,273.83c-3.07-.1-16.7,1.12-41.93,27a20.46,20.46,0,0,0-1.7,1.69l-.93,1.05c3-.57,6-1.33,9-1.76,23.89-23.63,35.36-22.85,35.43-22.84l.63.09A26.43,26.43,0,0,0,1194.88,273.83Zm-1.09,2.63c-3.83.33-16.12,3.22-37.49,24.7h0c21.47-21.61,33.68-24.42,37.49-24.72Z" transform="translate(-1.35)"/><path class="cls-10" d="M1213.79,333.44s.34-4.36,3.38-5.73a22.81,22.81,0,0,0,4.36.19l-6.61,6.37a5.5,5.5,0,0,0-.87,2.72Z" transform="translate(-1.35)"/></g></g></svg>